
<svg aria-hidden="true" style="position:absolute;width:0;height:0;overflow:hidden" xmlns="http://www.w3.org/2000/svg" xmlns:xlink="http://www.w3.org/1999/xlink">
<defs>

<symbol id="icon-user" viewBox="0 0 32 32">
<path stroke-linejoin="round" stroke-linecap="round" stroke-width="2.667" d="M26.667 28c0-1.861 0-2.791-0.23-3.548-0.517-1.705-1.851-3.039-3.556-3.556-0.757-0.23-1.687-0.23-3.548-0.23h-6.667c-1.861 0-2.791 0-3.548 0.23-1.705 0.517-3.038 1.851-3.556 3.556-0.23 0.757-0.23 1.687-0.23 3.548"/>
<path stroke-linejoin="round" stroke-linecap="round" stroke-width="2.667" d="M16 16c3.314 0 6-2.686 6-6s-2.686-6-6-6c-3.314 0-6 2.686-6 6s2.686 6 6 6z"/>
</symbol>

<symbol id="icon-message" viewBox="0 0 32 32">
<path stroke-linejoin="round" stroke-linecap="round" stroke-width="2.667" d="M8.126 14.972c-0.083-0.534-0.126-1.081-0.126-1.638 0-5.891 4.807-10.667 10.737-10.667s10.737 4.776 10.737 10.667c0 1.331-0.245 2.605-0.693 3.779-0.093 0.244-0.14 0.366-0.161 0.461s-0.029 0.161-0.031 0.257c-0.002 0.097 0.011 0.205 0.037 0.42l0.537 4.36c0.058 0.472 0.087 0.708 0.009 0.88-0.069 0.15-0.191 0.27-0.343 0.335-0.173 0.075-0.409 0.040-0.879-0.029l-4.247-0.623c-0.222-0.033-0.333-0.049-0.434-0.048-0.1 0.001-0.169 0.008-0.267 0.028s-0.225 0.068-0.477 0.163c-1.178 0.441-2.454 0.683-3.787 0.683-0.558 0-1.105-0.042-1.64-0.124M10.175 29.333c3.953 0 7.158-3.283 7.158-7.333s-3.205-7.333-7.158-7.333c-3.953 0-7.158 3.283-7.158 7.333 0 0.814 0.13 1.597 0.369 2.329 0.101 0.309 0.152 0.464 0.168 0.57 0.017 0.11 0.020 0.172 0.014 0.284-0.006 0.107-0.033 0.227-0.086 0.469l-0.815 3.682 3.993-0.545c0.218-0.030 0.327-0.045 0.422-0.044 0.1 0.001 0.153 0.006 0.252 0.026 0.093 0.019 0.232 0.067 0.51 0.165 0.731 0.258 1.516 0.398 2.332 0.398z"/>
</symbol>

<symbol id="icon-brush" viewBox="0 0 32 32">
<path stroke-linejoin="round" stroke-linecap="round" stroke-width="2.667" d="M17.037 20.001l-5.037-5.037"/>
<path stroke-linejoin="round" stroke-linecap="round" stroke-width="2.667" d="M2.667 29.332c2.667 0 6.144 0.456 7.966-1.367s1.822-4.777 0-6.6c-1.822-1.822-4.777-1.822-6.6 0s0 5.3-1.367 7.967z"/>
<path stroke-linejoin="round" stroke-linecap="round" stroke-width="2.667" d="M10.667 21.332c-0.655-0.655-0.983-0.983-1.168-1.326-0.444-0.823-0.425-1.818 0.050-2.623 0.198-0.336 0.538-0.651 1.218-1.28l13.157-12.183c1.159-1.073 2.959-1.038 4.075 0.078s1.151 2.917 0.078 4.075l-12.183 13.157c-0.63 0.68-0.944 1.020-1.28 1.218-0.805 0.475-1.8 0.495-2.623 0.050-0.343-0.185-0.671-0.513-1.326-1.168z"/>
</symbol>
 
<symbol id="icon-hourglass" viewBox="0 0 23 32">
<path  stroke-linejoin="round" stroke-linecap="round" stroke-width="2.909" d="M20.6 1.455h-17.927c-0.673 0-1.218 0.545-1.218 1.218 0 3.877 1.54 7.595 4.281 10.336l1.773 1.773c0.176 0.176 0.264 0.264 0.327 0.349 0.385 0.516 0.385 1.223 0 1.739-0.063 0.084-0.151 0.173-0.327 0.349l-1.773 1.773c-2.741 2.741-4.281 6.459-4.281 10.336 0 0.673 0.545 1.218 1.218 1.218h17.927c0.673 0 1.218-0.545 1.218-1.218 0-3.877-1.54-7.595-4.281-10.336l-1.773-1.773c-0.176-0.176-0.264-0.264-0.327-0.349-0.385-0.516-0.385-1.223 0-1.739 0.063-0.085 0.151-0.173 0.327-0.349l1.773-1.773c2.741-2.741 4.281-6.459 4.281-10.336 0-0.673-0.545-1.218-1.218-1.218z"/>
</symbol>

<symbol id="icon-phone" viewBox="0 0 32 32">
<path stroke-linejoin="round" stroke-linecap="round" stroke-width="1.454" d="M1.818 8.364c0 12.049 9.769 21.818 21.818 21.818h3.273c0.868 0 1.7-0.345 2.314-0.959s0.959-1.446 0.959-2.314v-1.996c0-0.751-0.511-1.405-1.239-1.587l-6.433-1.609c-0.64-0.16-1.312 0.080-1.706 0.607l-1.411 1.881c-0.41 0.547-1.119 0.788-1.76 0.553-2.381-0.875-4.544-2.258-6.338-4.052s-3.177-3.956-4.052-6.338c-0.236-0.641 0.006-1.35 0.553-1.76l1.881-1.411c0.528-0.394 0.767-1.068 0.607-1.706l-1.609-6.433c-0.089-0.354-0.293-0.668-0.58-0.893s-0.642-0.347-1.007-0.347h-1.996c-0.868 0-1.7 0.345-2.314 0.959s-0.959 1.446-0.959 2.314v3.273z"/>
</symbol>

<symbol id="icon-email" viewBox="0 0 32 32">
<path stroke-linejoin="round" stroke-linecap="round" stroke-width="1.333" d="M29 9v14c0 0.796-0.316 1.559-0.879 2.121s-1.326 0.879-2.121 0.879h-20c-0.796 0-1.559-0.316-2.121-0.879s-0.879-1.326-0.879-2.121v-14M29 9c0-0.796-0.316-1.559-0.879-2.121s-1.326-0.879-2.121-0.879h-20c-0.796 0-1.559 0.316-2.121 0.879s-0.879 1.326-0.879 2.121M29 9v0.324c0 0.512-0.131 1.016-0.381 1.463s-0.61 0.823-1.046 1.092l-10 6.153c-0.473 0.291-1.018 0.446-1.573 0.446s-1.1-0.154-1.573-0.446l-10-6.152c-0.436-0.269-0.796-0.644-1.046-1.092s-0.381-0.951-0.381-1.463v-0.325"/>
</symbol>

<symbol id="icon-location" viewBox="0 0 32 32">
<path stroke-linejoin="round" stroke-linecap="round" stroke-width="1.333" d="M20 14c0 1.061-0.421 2.078-1.172 2.828s-1.768 1.172-2.828 1.172c-1.061 0-2.078-0.421-2.828-1.172s-1.172-1.768-1.172-2.828c0-1.061 0.421-2.078 1.172-2.828s1.768-1.172 2.828-1.172c1.061 0 2.078 0.421 2.828 1.172s1.172 1.768 1.172 2.828v0z"/>
<path stroke-linejoin="round" stroke-linecap="round" stroke-width="1.333" d="M26 14c0 9.523-10 15-10 15s-10-5.477-10-15c0-2.652 1.054-5.196 2.929-7.071s4.419-2.929 7.071-2.929c2.652 0 5.196 1.054 7.071 2.929s2.929 4.419 2.929 7.071v0z"/>
</symbol>

<symbol id="icon-close" viewBox="0 0 32 32">
<path stroke-linejoin="round" stroke-linecap="round" stroke-width="2.667" d="M24 8l-16 16"/>
<path stroke-linejoin="round" stroke-linecap="round" stroke-width="2.667" d="M8 8l16 16"/>
</symbol>

<symbol id="icon-menu" viewBox="0 0 32 32">
<path d="M5.334 23.027v-1.333h21.333v1.333h-21.333zM5.334 16.667v-1.333h21.333v1.333h-21.333zM5.334 10.307v-1.333h21.333v1.333h-21.333z"/>
</symbol>


  <symbol id="icon-checkmark" viewBox="0 0 32 32">
<path d="M30.563 15.994c0-0.012 0-0.031 0-0.044 0-0.1 0-0.2-0.006-0.294 0-0.056-0.006-0.113-0.006-0.175 0-0.056-0.006-0.113-0.006-0.169-0.006-0.069-0.006-0.137-0.012-0.206 0-0.044-0.006-0.088-0.006-0.131-0.006-0.075-0.012-0.15-0.019-0.225 0-0.031-0.006-0.069-0.006-0.1-0.006-0.081-0.019-0.162-0.025-0.25 0-0.019-0.006-0.044-0.006-0.063-0.825-7.263-6.988-12.906-14.469-12.906s-13.644 5.644-14.469 12.912c0 0.019-0.006 0.044-0.006 0.063-0.006 0.081-0.019 0.162-0.025 0.25-0.006 0.031-0.006 0.069-0.006 0.1-0.006 0.075-0.012 0.15-0.019 0.225 0 0.044-0.006 0.088-0.006 0.131-0.006 0.069-0.006 0.137-0.012 0.206 0 0.056-0.006 0.113-0.006 0.169s-0.006 0.113-0.006 0.175c0 0.1-0.006 0.2-0.006 0.294 0 0.012 0 0.031 0 0.044 0 0 0 0 0 0.006s0 0 0 0.006c0 0.012 0 0.031 0 0.044 0 0.1 0 0.2 0.006 0.294 0 0.056 0.006 0.113 0.006 0.175 0 0.056 0.006 0.113 0.006 0.169 0.006 0.069 0.006 0.137 0.012 0.206 0 0.044 0.006 0.087 0.006 0.131 0.006 0.075 0.012 0.15 0.019 0.225 0 0.031 0.006 0.069 0.006 0.1 0.006 0.081 0.019 0.163 0.025 0.25 0 0.019 0.006 0.044 0.006 0.063 0.825 7.256 6.988 12.9 14.469 12.9s13.644-5.644 14.469-12.906c0-0.019 0.006-0.044 0.006-0.063 0.006-0.081 0.019-0.163 0.025-0.25 0.006-0.031 0.006-0.069 0.006-0.1 0.006-0.075 0.012-0.15 0.019-0.225 0-0.044 0.006-0.087 0.006-0.131 0.006-0.069 0.006-0.137 0.012-0.206 0-0.056 0.006-0.113 0.006-0.169s0.006-0.113 0.006-0.175c0-0.1 0.006-0.2 0.006-0.294 0-0.012 0-0.031 0-0.044 0-0.006 0-0.006 0-0.012 0 0.006 0 0.006 0 0z"></path>
<path stroke-linejoin="miter" stroke-linecap="butt" stroke-miterlimit="10" stroke-width="1.875" d="M13.35 21.512l9.756-9.75"></path>
<path stroke-linejoin="miter" stroke-linecap="butt" stroke-miterlimit="10" stroke-width="1.875" d="M14.613 21.575l-4.944-4.944"></path>
  </symbol>


    <symbol id="icon-arrow-narrow-right" viewBox="0 0 32 32">
      <path stroke-linejoin="round" stroke-linecap="round" stroke-miterlimit="4" stroke-width="2.6667"
            d="M5.333 16h21.333"></path>
      <path stroke-linejoin="round" stroke-linecap="round" stroke-miterlimit="4" stroke-width="2.6667"
            d="M18.667 8l8 8-8 8"></path>
    </symbol>

    <symbol id="icon-arrow-narrow-left" viewBox="0 0 32 32">
    <path fill="none" stroke-linejoin="round" stroke-linecap="round" stroke-miterlimit="4" stroke-width="2.6667"
          d="M26.667 16h-21.333"></path>
    <path fill="none" stroke-linejoin="round" stroke-linecap="round" stroke-miterlimit="4" stroke-width="2.6667"
          d="M13.333 24l-8-8 8-8"></path>
    </symbol>

    <symbol id="icon-arrow-visit" viewBox="0 0 32 32">
      <path stroke-linejoin="round" stroke-linecap="round" stroke-miterlimit="4" stroke-width="2.6667"
            d="M6.333 25.667l19.333-19.333M25.667 6.333h-18M25.667 6.333v18"></path>
    </symbol>

<symbol id="icon-Vector-up" viewBox="0 0 50 32"><path stroke-linecap="round" stroke-width="7.111" d="M46.222 28.444l-21.333-21.333-21.333 21.333"/></symbol>
<symbol id="icon-Vector-down" viewBox="0 0 50 32"><path stroke-linecap="round" stroke-width="7.111" d="M46.222 3.556l-21.333 21.333-21.333-21.333"/></symbol>
  </defs>

</svg>